<svg style="display: none;">
  <symbol xmlns="http://www.w3.org/2000/svg" viewBox="0 0 50 50" id="+х">
    <circle cx="25" cy="25" r="25"></circle>
    <path fill-rule="evenodd" d="M25.057 24.057V9h.886v15.057H41v.886H25.943V40h-.886V24.943H10v-.886h15.057z" clip-rule="evenodd"></path>
  </symbol>
  <symbol xmlns="http://www.w3.org/2000/svg" viewBox="0 0 10 8" id="Check">
    <path stroke-width="2" d="M8.95 1.082L4 6.032 1.172 3.204"></path>
  </symbol>
  <symbol xmlns="http://www.w3.org/2000/svg" viewBox="0 0 61 61" id="fb">
    <path d="M30.917.12c-16.5 0-30 13.524-30 30.18 0 15.061 10.98 27.561 25.32 29.82V39.036h-7.62V30.3h7.62v-6.657c0-7.56 4.47-11.717 11.34-11.717 3.27 0 6.69.573 6.69.573v7.44h-3.78c-3.72 0-4.89 2.319-4.89 4.698V30.3h8.34l-1.35 8.735h-6.99V60.12a29.97 29.97 0 0018.15-10.21 30.194 30.194 0 007.17-19.61c0-16.656-13.5-30.18-30-30.18z"></path>
  </symbol>
  <symbol xmlns="http://www.w3.org/2000/svg" viewBox="0 0 16 16" id="iTultip">
    <path fill-rule="evenodd" d="M8 16A8 8 0 108 0a8 8 0 000 16z" clip-rule="evenodd"></path>
    <path d="M7.262 6.455h1.476V13H7.262V6.455zM8 4.903a1.02 1.02 0 01-.723-.274.906.906 0 01-.277-.67c0-.264.092-.487.277-.67A.988.988 0 018 3c.287 0 .523.091.708.274.195.172.292.39.292.654a.949.949 0 01-.292.7.964.964 0 01-.708.275z"></path>
  </symbol>
  <symbol xmlns="http://www.w3.org/2000/svg" viewBox="0 0 60 60" id="instagram">
    <path d="M24.258 30a5.742 5.742 0 1011.484 0 5.742 5.742 0 00-11.484 0z"></path>
    <path d="M16.571 19.84a5.338 5.338 0 011.289-1.98 5.334 5.334 0 011.98-1.289c.607-.236 1.52-.516 3.199-.593 1.817-.083 2.361-.1 6.961-.1s5.145.017 6.961.1c1.68.077 2.592.357 3.199.593a5.33 5.33 0 011.98 1.289 5.34 5.34 0 011.29 1.98c.235.607.516 1.52.592 3.2.083 1.816.1 2.36.1 6.96s-.017 5.145-.1 6.962c-.076 1.68-.357 2.591-.593 3.198a5.34 5.34 0 01-1.288 1.98 5.333 5.333 0 01-1.98 1.29c-.608.236-1.52.516-3.2.593-1.816.082-2.36.1-6.96.1-4.601 0-5.146-.018-6.962-.1-1.68-.077-2.592-.358-3.199-.594a5.705 5.705 0 01-3.269-3.269c-.236-.607-.516-1.519-.593-3.198-.083-1.817-.1-2.362-.1-6.962s.017-5.144.1-6.96c.076-1.68.357-2.593.593-3.2zM30 38.846a8.846 8.846 0 100-17.692A8.846 8.846 0 0021.154 30 8.846 8.846 0 0030 38.846zm-9.196-15.974a2.067 2.067 0 100-4.135 2.067 2.067 0 000 4.135z"></path>
    <path d="M30 0c16.566 0 30 13.434 30 30 0 16.566-13.434 30-30 30C13.434 60 0 46.566 0 30 0 13.434 13.434 0 30 0zM12.877 37.102c.084 1.834.375 3.086.801 4.182a8.808 8.808 0 005.038 5.038c1.096.426 2.348.717 4.181.8 1.837.084 2.424.105 7.103.105 4.678 0 5.265-.02 7.102-.104 1.834-.084 3.086-.375 4.181-.801a8.44 8.44 0 003.052-1.987 8.445 8.445 0 001.987-3.051c.425-1.096.717-2.348.8-4.181.085-1.838.105-2.425.105-7.103s-.02-5.265-.104-7.102c-.084-1.834-.375-3.086-.8-4.182a8.44 8.44 0 00-1.988-3.05 8.44 8.44 0 00-3.051-1.988c-1.096-.426-2.348-.717-4.182-.8-1.837-.084-2.424-.105-7.102-.105-4.678 0-5.265.02-7.102.105-1.834.083-3.086.374-4.182.8a8.445 8.445 0 00-3.051 1.987 8.44 8.44 0 00-1.987 3.051c-.426 1.096-.717 2.348-.801 4.182-.084 1.837-.104 2.424-.104 7.102 0 4.678.02 5.265.104 7.102z"></path>
  </symbol>
  <symbol xmlns="http://www.w3.org/2000/svg" viewBox="0 0 119 132" id="package">
    <path fill-rule="evenodd" d="M30.13 15.49a.973.973 0 011.332-.359l57.05 33.041c.466.27.626.87.357 1.338a.973.973 0 01-1.332.359L30.488 16.828a.982.982 0 01-.357-1.338z" clip-rule="evenodd"></path>
    <path fill-rule="evenodd" d="M52.502 1.875a13.998 13.998 0 0113.996 0l.002.001L112 27.881a14.006 14.006 0 017 12.113v52.012a14.004 14.004 0 01-7 12.113l-.004.002L66.5 130.124l-.001.001a14.004 14.004 0 01-13.998 0l-.001-.001-45.496-26.003-.004-.002a14 14 0 01-7-12.113V39.994A14.005 14.005 0 017 27.88l.004-.002L52.5 1.876l.002-.001zM59.5 2c-2.106 0-4.176.555-6 1.608l-.004.003L8 29.614h-.002A12.002 12.002 0 002 39.996v52.01a12.005 12.005 0 005.998 10.38l.002.001 45.5 26.006a12.003 12.003 0 0012 0l.004-.003L111 102.386l.002-.001A12.004 12.004 0 00117 92.005v-52.01a12.004 12.004 0 00-5.998-10.38l-.002-.001L65.504 3.61l-.004-.003A11.998 11.998 0 0059.5 2z" clip-rule="evenodd"></path>
    <path fill-rule="evenodd" d="M2.133 33.488a.993.993 0 011.349-.357L59 64.896l55.518-31.765a.993.993 0 011.349.357.97.97 0 01-.36 1.334L59.494 66.869a.997.997 0 01-.988 0L2.493 34.822a.97.97 0 01-.36-1.334z" clip-rule="evenodd"></path>
    <path fill-rule="evenodd" d="M59 65a.99.99 0 011 .978v64.045a.99.99 0 01-1 .977.99.99 0 01-1-.977V65.978A.99.99 0 0159 65z" clip-rule="evenodd"></path>
  </symbol>
  <symbol xmlns="http://www.w3.org/2000/svg" viewBox="0 0 26 26" id="Search">
    <path d="M19.514 18.55l5.657 5.656-1.414 1.414-5.657-5.656z"></path>
    <circle cx="11.5" cy="11.5" r="10.5" stroke-width="2"></circle>
  </symbol>
  <symbol xmlns="http://www.w3.org/2000/svg" viewBox="0 0 127 127" id="settings">
    <path fill-rule="evenodd" d="M63 47c-8.837 0-16 7.163-16 16s7.163 16 16 16 16-7.163 16-16-7.163-16-16-16zM45 63c0-9.941 8.059-18 18-18s18 8.059 18 18-8.059 18-18 18-18-8.059-18-18z" clip-rule="evenodd"></path>
    <path fill-rule="evenodd" d="M63.5 2.005a10.36 10.36 0 00-10.36 10.36v.971a10.378 10.378 0 01-6.29 9.496.994.994 0 01-.395.081h-.248a10.377 10.377 0 01-11.248-2.16l-.008-.008-.34-.341a10.364 10.364 0 00-11.298-2.25 10.36 10.36 0 00-3.363 2.25 10.361 10.361 0 000 14.66l.348.35a10.377 10.377 0 012.088 11.417 10.377 10.377 0 01-9.485 6.763h-.535a10.36 10.36 0 000 20.721h.97A10.377 10.377 0 0122.83 80.6a10.378 10.378 0 01-2.077 11.442l-.008.008-.341.34a10.364 10.364 0 00-2.25 11.299 10.364 10.364 0 002.25 3.362v.001a10.375 10.375 0 007.33 3.039 10.368 10.368 0 007.33-3.039l.35-.349a10.378 10.378 0 0111.417-2.088 10.378 10.378 0 016.763 9.485v.535a10.36 10.36 0 1020.721 0v-.97a10.377 10.377 0 016.284-9.494 10.371 10.371 0 0111.442 2.077l.008.008.34.341a10.36 10.36 0 0014.661 0h.001a10.37 10.37 0 002.249-11.298 10.375 10.375 0 00-2.249-3.362l-.349-.35a10.378 10.378 0 01-2.078-11.442 10.38 10.38 0 019.495-6.284h.515a10.36 10.36 0 100-20.72h-.97a10.378 10.378 0 01-9.496-6.29.994.994 0 01-.081-.395v-.248a10.373 10.373 0 012.16-11.248l.008-.008.341-.34a10.361 10.361 0 000-14.661 10.368 10.368 0 00-7.33-3.04 10.36 10.36 0 00-7.33 3.04l-.35.348a10.377 10.377 0 01-11.441 2.078 10.377 10.377 0 01-6.284-9.495v-.515A10.36 10.36 0 0063.5 2.006zm-8.744 1.617a12.366 12.366 0 0121.11 8.744v.509a8.372 8.372 0 005.074 7.66l.01.004a8.372 8.372 0 009.23-1.67l.004-.004.333-.333a12.37 12.37 0 0120.181 4.013 12.37 12.37 0 01-2.684 13.484l-.333.332-.004.004a8.368 8.368 0 00-1.671 9.23.991.991 0 01.086.406v.242a8.375 8.375 0 007.578 4.891h.964a12.365 12.365 0 110 24.732h-.509a8.37 8.37 0 00-7.66 5.074l-.004.01a8.38 8.38 0 00-.579 4.873 8.382 8.382 0 002.253 4.361l.333.333a12.358 12.358 0 013.627 8.749 12.37 12.37 0 01-3.627 8.748 12.368 12.368 0 01-17.496 0l-.333-.333a8.368 8.368 0 00-9.234-1.675l-.01.005a8.372 8.372 0 00-5.075 7.659v.964a12.365 12.365 0 11-24.731 0v-.499a8.368 8.368 0 00-5.48-7.65.393.393 0 01-.032-.013 8.379 8.379 0 00-4.9-.59 8.377 8.377 0 00-4.357 2.25l-.004.003-.333.333a12.357 12.357 0 01-8.748 3.627 12.372 12.372 0 01-8.75-3.627 12.363 12.363 0 01-2.683-13.483 12.365 12.365 0 012.684-4.013l.333-.333a8.371 8.371 0 001.674-9.234l-.004-.01a8.372 8.372 0 00-7.66-5.075h-.963a12.366 12.366 0 110-24.731h.5a8.371 8.371 0 007.673-5.539 8.371 8.371 0 00-1.67-9.23l-.337-.337a12.367 12.367 0 010-17.497 12.366 12.366 0 0117.496 0l.337.337a8.372 8.372 0 009.23 1.67c.128-.056.266-.085.406-.085h.242a8.372 8.372 0 004.891-7.579v-.963c0-3.28 1.303-6.425 3.622-8.744z" clip-rule="evenodd"></path>
  </symbol>
  <symbol xmlns="http://www.w3.org/2000/svg" viewBox="0 0 60 60" id="vk">
    <path d="M30 0C13.432 0 0 13.431 0 30c0 16.569 13.432 30 30 30 16.568 0 30-13.431 30-30C60 13.431 46.568 0 30 0zm15.218 33.245c1.398 1.365 2.877 2.65 4.132 4.158.556.666 1.08 1.355 1.48 2.13.57 1.106.055 2.319-.935 2.384l-6.146-.001c-1.587.131-2.85-.509-3.915-1.594-.85-.865-1.639-1.789-2.458-2.683-.334-.367-.687-.713-1.106-.985-.838-.545-1.566-.378-2.046.497-.49.891-.601 1.878-.648 2.87-.067 1.449-.504 1.827-1.958 1.895-3.107.146-6.055-.325-8.795-1.892-2.418-1.382-4.288-3.332-5.919-5.54-3.174-4.304-5.606-9.027-7.79-13.887-.492-1.094-.132-1.68 1.075-1.703 2.006-.038 4.012-.033 6.018-.002.816.013 1.357.48 1.67 1.25 1.084 2.668 2.413 5.205 4.078 7.559.444.626.897 1.251 1.542 1.694.712.488 1.255.327 1.59-.468.215-.505.308-1.045.355-1.587.16-1.854.178-3.708-.098-5.555-.172-1.155-.822-1.902-1.974-2.12-.587-.111-.5-.329-.215-.664.495-.58.96-.938 1.887-.938l6.944-.001c1.094.215 1.34.706 1.488 1.808l.006 7.717c-.013.427.215 1.691.98 1.97.614.203 1.02-.29 1.386-.678 1.666-1.767 2.852-3.853 3.915-6.012.469-.951.873-1.937 1.266-2.924.292-.73.746-1.089 1.57-1.076l6.687.008c.197 0 .397.002.592.035 1.127.193 1.436.678 1.088 1.777-.55 1.727-1.615 3.166-2.658 4.609-1.117 1.544-2.308 3.034-3.414 4.585-1.017 1.418-.936 2.132.326 3.364z"></path>
  </symbol>
  <symbol xmlns="http://www.w3.org/2000/svg" viewBox="0 0 18 12" id="Watch">
    <path d="M9 0C4.91 0 1.415 2.488 0 6c1.415 3.512 4.91 6 9 6s7.584-2.488 9-6c-1.416-3.512-4.91-6-9-6zm0 10c-2.258 0-4.09-1.792-4.09-4S6.741 2 9 2s4.09 1.792 4.09 4-1.832 4-4.09 4zm0-6.4C7.642 3.6 6.545 4.672 6.545 6c0 1.328 1.097 2.4 2.455 2.4s2.454-1.072 2.454-2.4c0-1.328-1.096-2.4-2.454-2.4z"></path>
  </symbol>
  <symbol xmlns="http://www.w3.org/2000/svg" viewBox="0 0 23 23" id="closeBtn">
    <rect x="8.58081" y="7" width="11.1785" height="2.2357" transform="rotate(45 8.58081 7)"/>
    <rect x="7" y="14.9044" width="11.1785" height="2.2357" transform="rotate(-45 7 14.9044)"/>
    <circle cx="11.5" cy="11.5" r="10.5" stroke-width="2"/>
  </symbol>
</svg>
