<svg xmlns="http://www.w3.org/2000/svg" width="119" height="132" fill="none">
  <path fill="#000" fill-rule="evenodd" d="M30.13 15.49a.973.973 0 011.332-.359l57.05 33.041c.466.27.626.87.357 1.338a.973.973 0 01-1.332.359L30.488 16.828a.982.982 0 01-.357-1.338z" clip-rule="evenodd"/>
  <path fill="#000" fill-rule="evenodd" d="M52.502 1.875a13.998 13.998 0 0113.996 0l.002.001L112 27.881a14.006 14.006 0 017 12.113v52.012a14.004 14.004 0 01-7 12.113l-.004.002L66.5 130.124l-.001.001a14.004 14.004 0 01-13.998 0l-.001-.001-45.496-26.003-.004-.002a14 14 0 01-7-12.113V39.994A14.005 14.005 0 017 27.88l.004-.002L52.5 1.876l.002-.001zM59.5 2c-2.106 0-4.176.555-6 1.608l-.004.003L8 29.614h-.002A12.002 12.002 0 002 39.996v52.01a12.005 12.005 0 005.998 10.38l.002.001 45.5 26.006a12.003 12.003 0 0012 0l.004-.003L111 102.386l.002-.001A12.004 12.004 0 00117 92.005v-52.01a12.004 12.004 0 00-5.998-10.38l-.002-.001L65.504 3.61l-.004-.003A11.998 11.998 0 0059.5 2z" clip-rule="evenodd"/>
  <path fill="#000" fill-rule="evenodd" d="M2.133 33.488a.993.993 0 011.349-.357L59 64.896l55.518-31.765a.993.993 0 011.349.357.97.97 0 01-.36 1.334L59.494 66.869a.997.997 0 01-.988 0L2.493 34.822a.97.97 0 01-.36-1.334z" clip-rule="evenodd"/>
  <path fill="#000" fill-rule="evenodd" d="M59 65c.552 0 1 .438 1 .978v64.045a.99.99 0 01-1 .977.99.99 0 01-1-.977V65.978c0-.54.448-.978 1-.978z" clip-rule="evenodd"/>
</svg>
